# xmcd
#
# Track frame offsets: 
#        150
#        23211
#        50806
#        79063
#        101902
#        125991
#        148948
#        168725
#        189257
#        218346
#        252155
#        270359
#
# Disc length: 4274 seconds
#
# Revision: 4
# Processed by: cddbd v1.5.2PL0 Copyright (c) Steve Scherf et al.
# Submitted via: ExactAudioCopy v1.0b4
#
DISCID=b010b00c
DTITLE=Various Artist - Modern Jazz Masters (Jazz and Tzaz 117)
DYEAR=2002
DGENRE=Jazz
TTITLE0=Art Ensemble Of Chicago - Odwalla Theme
TTITLE1=James Carter - Deep Throat Blues
TTITLE2=Joshua Redman - Can A Good Thing Last Forever
TTITLE3=Cyrus Chestnut Feat. James Carter - Miss Thing
TTITLE4=Kenny Garrett - Lonnie's Lament
TTITLE5=Brad Mehldau - 29 Palms
TTITLE6=Ginger Baker - Ramblin'
TTITLE7=Mark Turner - Jesus Maria
TTITLE8=James Carter - Parker's Mood
TTITLE9=James Moody - Charade
TTITLE10=Bobby Lyle - So What
TTITLE11=Brad Mehldau - Monk's Dream
EXTD=YEAR: 2002
EXTT0=
EXTT1=
EXTT2=
EXTT3=
EXTT4=
EXTT5=
EXTT6=
EXTT7=
EXTT8=
EXTT9=
EXTT10=
EXTT11=
PLAYORDER=
